<?xml version="1.0" encoding="UTF-8" standalone="no"?>
<svg
    width="40"
    height="40"
    viewBox="0 0 10.583333 10.583334"
    version="1.1"
    xmlns="http://www.w3.org/2000/svg">
    <style>
        path {
            fill: #1f2937;
        }
        @media (prefers-color-scheme: dark) {
            path {
                fill: gray;
            }
        }
    </style>
    <path
        style="fill-opacity:1;stroke-width:0.264583"
        d="M 5.2329476,4.2039225 C 4.8013709,4.2111006 4.3590482,4.1596952 3.9515153,4.0107703 3.838617,3.9695141 3.7319547,3.9128639 3.6221746,3.8639107 3.5256697,3.8004273 3.4236715,3.7445957 3.3326599,3.6734607 3.0445831,3.4482989 2.7719406,3.099495 2.6989074,2.7331998 2.6846331,2.6616056 2.6884378,2.5875687 2.6832017,2.5147531 2.6988889,2.4481645 2.7020162,2.3772952 2.7302629,2.3149872 2.7994708,2.1623216 2.9420309,2.0373542 3.0756352,1.9462589 3.1742604,1.879013 3.4868725,1.7039093 3.3866727,1.7687862 2.3179398,2.4607635 1.9529298,2.5485397 2.8414485,2.2396508 3.0006843,2.2018073 3.1580642,2.1550636 3.3191558,2.1261203 3.7313623,2.0520592 4.1679624,2.032855 4.5739097,2.155106 4.8797466,2.2472087 4.9252721,2.308364 5.1780521,2.4858441 5.2507215,2.563884 5.3315888,2.6350257 5.3960601,2.7199637 5.6511382,3.0560171 5.7665672,3.5098984 5.6102265,3.9152126 5.5669753,4.0273414 5.4931971,4.1251608 5.4346826,4.230135 5.0425879,4.7347153 4.4839289,5.0518528 3.9614726,5.4003773 3.5233128,5.6926686 3.6199156,5.6287376 3.2198878,5.9375169 3.1285455,6.0254022 3.0300768,6.1064369 2.945861,6.2011731 2.7396686,6.4331225 2.6034192,6.7000923 2.5836696,7.0129013 2.5681346,7.2589609 2.6067756,7.3332135 2.6663686,7.5712219 2.8259867,7.992384 3.067509,8.3820891 3.4256873,8.6639282 3.7011263,8.8806625 3.8124793,8.9053423 4.1358092,9.049755 4.8364973,9.305088 5.5815369,9.3974149 6.3243229,9.4012834 6.4637173,9.4019977 6.603049,9.3952034 6.7424119,9.3921634 7.1404331,9.3600602 7.573075,9.3446469 7.9271216,9.1334282 9.6789466,8.0883164 9.2792364,8.6325487 9.7749912,7.8844128 9.8038723,7.8149317 9.839405,7.7478556 9.8616348,7.6759699 9.961284,7.3537251 9.9036247,7.0068542 9.7385009,6.7159912 9.6853953,6.6224461 9.6159406,6.5391796 9.5546605,6.4507739 9.4720822,6.3631076 9.3949318,6.2699894 9.3069245,6.1877733 8.8771097,5.7862414 8.3425005,5.5009652 7.8065576,5.2688288 7.6659178,5.2079127 7.5217186,5.1555676 7.3792989,5.098937 6.8474885,4.8945746 6.2927322,4.7649883 5.7387561,4.6381929 c 0,0 -1.4795966,1.0428734 -1.4795966,1.0428734 v 0 c 0.2398382,0.017312 0.3275894,0.019661 0.5764041,0.056288 0.4000492,0.058891 0.794707,0.1507213 1.1785226,0.2784438 0.1410679,0.053051 0.2842565,0.1007724 0.4232035,0.1591527 0.510572,0.2145231 1.0052751,0.5005652 1.3875088,0.9077809 0.074888,0.079783 0.1377455,0.1700589 0.2066182,0.255088 0.046663,0.083409 0.1012084,0.1628735 0.1399881,0.2502268 C 8.289922,7.855011 8.3092564,8.16422 8.1911242,8.4345681 8.1645526,8.4953781 8.1259885,8.5502098 8.0934207,8.6080308 7.6092906,9.1588996 7.9400939,8.7478014 9.3288571,8.0028057 9.4074759,7.9606308 9.1828378,8.1064377 9.1033977,8.1470446 8.7889814,8.3077631 8.4369517,8.3632573 8.0906696,8.4040886 7.9494231,8.4126109 7.8083843,8.4259353 7.6669298,8.429658 7.0878895,8.4448953 6.494064,8.3973531 5.933332,8.2463329 5.8002085,8.2104793 5.6709135,8.1616816 5.5397042,8.119356 5.2502186,7.9823931 5.1455325,7.9547301 4.898636,7.756178 4.5697555,7.4916947 4.3556951,7.1297794 4.2395396,6.728126 4.2047718,6.5192756 4.1750982,6.4384393 4.2014015,6.2283887 4.2492093,5.8466108 4.4989257,5.5591728 4.7777389,5.3149407 5.1582507,5.0173839 5.0340058,5.1050504 5.4594333,4.8148414 5.8803092,4.5277373 6.325128,4.2579123 6.6849248,3.8917057 6.7937128,3.7809799 6.8829205,3.6525864 6.981918,3.533027 7.0428672,3.4081225 7.121984,3.2905469 7.164765,3.1583132 7.3127308,2.7009587 7.1680961,2.184871 6.878753,1.8168865 6.8051645,1.7232959 6.7136914,1.6452691 6.6311602,1.5594607 6.3586854,1.3715758 6.283648,1.2897549 5.9572344,1.1904787 5.5216707,1.0580053 5.0488101,1.0790588 4.6050477,1.1481687 4.4418903,1.1735783 4.2816795,1.2152285 4.1199953,1.2487583 3.0180213,1.5709292 3.6544054,1.3501861 1.8043419,2.3815972 1.507398,2.5471436 1.1873343,2.772012 1.0919873,3.1205881 c -0.02142,0.078309 -0.010897,0.1620055 -0.016345,0.2430082 0.017389,0.081237 0.026191,0.1647997 0.052169,0.2437111 0.1259249,0.3825121 0.4437024,0.7501909 0.756391,0.9936927 0.097774,0.07614 0.2055703,0.1384504 0.3083555,0.2076757 0.111429,0.056141 0.2202361,0.1178214 0.3342869,0.1684245 0.3564427,0.1581499 0.7372672,0.2471076 1.1071214,0.3658669 0,0 1.5989818,-1.1390447 1.5989815,-1.1390447 z"
    />
</svg>
